<svg width="121" height="107" viewBox="0 0 121 107" fill="none" xmlns="http://www.w3.org/2000/svg">
<path d="M96.1097 106.109C95.821 101.542 93.6746 101.554 92.9988 99.051C91.8816 96.3452 92.2236 92.2897 91.7959 91.1394C89.5775 83.965 89.3977 84.42 88.6685 83.3047C86.1694 81.0572 85.7683 79.7403 85.7383 78.1674C82.4843 77.5164 79.5725 76.8799 77.7003 75.806C74.9567 74.6063 76.236 75.3078 73.4869 75.1113C70.3076 74.4146 72.5499 74.926 70.929 74.6643C69.1675 74.7554 67.2564 74.695 64.3975 74.6308C59.7086 75.0917 58.7851 75.1483 56.8856 75.8878C53.8485 76.2893 50.5371 76.2564 47.659 75.6524C42.5907 74.111 39.0811 73.1637 36.1256 72.8357C35.4751 74.2414 35.2827 78.1963 35.5207 81.1911C34.5033 83.5398 33.8231 87.1284 32.8512 90.1411C31.6052 92.4725 31.8663 93.1183 31.8097 95.181C31.8425 97.3839 31.878 100.931 30.9478 104.785C24.8833 104.869 24.4154 106.063 22.0363 106.139C18.3466 106.096 12.8522 106.274 0 105.873C11.7094 101.041 12.4676 99.7246 15.0019 95.9405C15.7682 94.343 15.1653 100.292 17.0137 94.3721C20.7522 87.2583 18.5949 94.0312 20.4612 88.0205C21.4394 83.887 22.1212 81.7919 22.4072 80.6401C22.9014 78.9096 23.3753 77.0072 24.054 73.4323C25.2753 67.9885 26.1496 66.0846 26.7202 64.2125C27.8426 61.6125 29.3276 59.4509 30.2603 58.3327C31.9048 55.4494 32.8574 53.6162 33.8337 52.4756C35.0123 50.233 35.4375 48.3918 35.8639 47.5178C37.9491 43.826 38.4723 42.9781 38.7993 41.1702C39.3813 39.5584 40.3419 37.9559 41.0151 36.0461C41.1747 35.4407 42.2962 32.6202 42.5034 31.8545C43.893 27.7024 45.0758 24.9404 45.8119 22.6438C46.5627 20.7393 46.5822 20.2693 48.2124 17.0865C50.1949 9.63874 49.9915 17.0145 50.8451 6.06645C51.8701 3.94578 53.3257 3.54336 54.1227 3.22538C54.7894 1.83156 55.0312 0.144745 65.1777 0C70.459 0.804077 70.8944 1.7364 78.0881 2.31827C75.8457 9.50061 75.267 11.448 74.0292 14.7917C73.8607 17.4676 71.788 13.0763 73.6136 16.0425C75.2203 20.0963 76.1889 21.5495 76.6935 22.4911C76.9447 23.036 77.2986 23.9382 80.3163 29.4951C81.8741 31.9184 82.0426 31.7656 83.7086 34.1662C85.7632 35.3478 86.8302 36.8782 87.8451 40.6885C89.0173 43.0467 89.3852 44.0642 91.1005 47.8395C92.0624 49.6338 92.922 52.6336 94.282 55.2534C94.5759 57.9177 95.2543 60.6248 96.2636 63.4648C96.8026 65.1966 97.3136 66.2359 97.4078 68.0731C99.0073 71.9076 99.9718 75.672 100.288 77.8153C100.091 80.9992 98.5828 74.3211 100.448 76.9001C102.575 81.6878 102.956 83.3904 104.307 85.5106C104.87 86.9635 105.724 88.7836 108.128 92.5399C108.56 93.943 109.723 96.8985 110.07 97.885C110.819 99.8635 113.757 101.113 120.802 106.254C112.022 106.347 108.126 106.102 105.236 106.196C102.928 106.557 101.058 106.441 96.1097 106.109ZM63.2589 12.8545C62.2897 14.6102 62.5344 15.2089 62.1199 17.119C61.4272 18.7011 60.766 21.3 60.1693 23.025C58.3132 26.0096 57.8183 27.3137 55.4499 32.8931C53.9502 36.603 53.2041 38.562 52.5389 40.6322C51.8946 42.2888 51.0095 45.4594 50.2987 47.6215C49.0214 49.9318 47.5551 52.8597 46.2358 55.5559C45.0229 57.7276 43.5337 60.2402 41.8841 63.1587C44.9921 63.6459 48.6417 64.4121 51.9125 64.7868C55.1627 65.0644 58.4257 64.6252 63.8098 65.1435C68.0044 64.7439 71.1632 64.4263 73.1822 64.4424C76.0472 64.9166 79.853 65.2441 83.027 66.1222C82.27 62.3857 81.1997 58.5442 80.6951 55.9641C80.026 52.0871 79.0768 49.8864 77.8867 46.5446C76.588 43.779 76.0384 42.0631 74.9635 40.6792C71.7137 37.5521 70.7585 35.5092 69.2881 32.6088C66.1275 27.8847 66.1002 28.303 66.7487 25.7831C66.2898 24.0748 65.4675 22.9207 64.8696 20.7628C63.9411 19.065 63.9555 17.3979 63.2589 12.8545Z" fill="black"/>
</svg>
